<?xml version="1.0" standalone="no"?>
<svg id="visual" viewBox="0 0 1920 300" preserveAspectRatio="none" style="transform:rotate(180deg);" width="100%" height="300" xmlns="http://www.w3.org/2000/svg" version="1.1"><defs><linearGradient id="sw-gradient-0" x1="0" x2="0" y1="1" y2="0"><stop stop-color="rgba(255, 255, 255, 1)" offset="0%"/><stop stop-color="rgba(0, 0, 0, 1)" offset="100%"/></linearGradient></defs><path style="transform:translate(0, 0px); opacity:1" fill="url(#sw-gradient-0)" d="M0,168L48,158.7C96,149,192,131,288,112C384,93,480,75,576,88.7C672,103,768,149,864,149.3C960,149,1056,103,1152,112C1248,121,1344,187,1440,214.7C1536,243,1632,233,1728,214.7C1824,196,1920,168,2016,168C2112,168,2208,196,2304,214.7C2400,233,2496,243,2592,210C2688,177,2784,103,2880,98C2976,93,3072,159,3168,168C3264,177,3360,131,3456,102.7C3552,75,3648,65,3744,56C3840,47,3936,37,4032,28C4128,19,4224,9,4320,4.7C4416,0,4512,0,4608,4.7C4704,9,4800,19,4896,32.7C4992,47,5088,65,5184,84C5280,103,5376,121,5472,112C5568,103,5664,65,5760,46.7C5856,28,5952,28,6048,42C6144,56,6240,84,6336,98C6432,112,6528,112,6624,98C6720,84,6816,56,6864,42L6912,28L6912,280L6864,280C6816,280,6720,280,6624,280C6528,280,6432,280,6336,280C6240,280,6144,280,6048,280C5952,280,5856,280,5760,280C5664,280,5568,280,5472,280C5376,280,5280,280,5184,280C5088,280,4992,280,4896,280C4800,280,4704,280,4608,280C4512,280,4416,280,4320,280C4224,280,4128,280,4032,280C3936,280,3840,280,3744,280C3648,280,3552,280,3456,280C3360,280,3264,280,3168,280C3072,280,2976,280,2880,280C2784,280,2688,280,2592,280C2496,280,2400,280,2304,280C2208,280,2112,280,2016,280C1920,280,1824,280,1728,280C1632,280,1536,280,1440,280C1344,280,1248,280,1152,280C1056,280,960,280,864,280C768,280,672,280,576,280C480,280,384,280,288,280C192,280,96,280,48,280L0,280Z"/><defs><linearGradient id="sw-gradient-1" x1="0" x2="0" y1="1" y2="0"><stop stop-color="rgba(0, 0, 0, 1)" offset="0%"/><stop stop-color="rgba(255, 255, 255, 1)" offset="100%"/></linearGradient></defs><path style="transform:translate(0, 50px); opacity:0.9" fill="url(#sw-gradient-1)" d="M0,112L48,98C96,84,192,56,288,74.7C384,93,480,159,576,172.7C672,187,768,149,864,126C960,103,1056,93,1152,84C1248,75,1344,65,1440,60.7C1536,56,1632,56,1728,84C1824,112,1920,168,2016,191.3C2112,215,2208,205,2304,186.7C2400,168,2496,140,2592,130.7C2688,121,2784,131,2880,126C2976,121,3072,103,3168,121.3C3264,140,3360,196,3456,219.3C3552,243,3648,233,3744,210C3840,187,3936,149,4032,135.3C4128,121,4224,131,4320,121.3C4416,112,4512,84,4608,93.3C4704,103,4800,149,4896,177.3C4992,205,5088,215,5184,200.7C5280,187,5376,149,5472,135.3C5568,121,5664,131,5760,140C5856,149,5952,159,6048,149.3C6144,140,6240,112,6336,112C6432,112,6528,140,6624,149.3C6720,159,6816,149,6864,144.7L6912,140L6912,280L6864,280C6816,280,6720,280,6624,280C6528,280,6432,280,6336,280C6240,280,6144,280,6048,280C5952,280,5856,280,5760,280C5664,280,5568,280,5472,280C5376,280,5280,280,5184,280C5088,280,4992,280,4896,280C4800,280,4704,280,4608,280C4512,280,4416,280,4320,280C4224,280,4128,280,4032,280C3936,280,3840,280,3744,280C3648,280,3552,280,3456,280C3360,280,3264,280,3168,280C3072,280,2976,280,2880,280C2784,280,2688,280,2592,280C2496,280,2400,280,2304,280C2208,280,2112,280,2016,280C1920,280,1824,280,1728,280C1632,280,1536,280,1440,280C1344,280,1248,280,1152,280C1056,280,960,280,864,280C768,280,672,280,576,280C480,280,384,280,288,280C192,280,96,280,48,280L0,280Z"/><defs><linearGradient id="sw-gradient-2" x1="0" x2="0" y1="1" y2="0"><stop stop-color="rgba(0, 0, 0, 1)" offset="0%"/><stop stop-color="rgba(0, 0, 0, 1)" offset="100%"/></linearGradient></defs><path style="transform:translate(0, 100px); opacity:0.8" fill="url(#sw-gradient-2)" d="M0,112L48,121.3C96,131,192,149,288,135.3C384,121,480,75,576,79.3C672,84,768,140,864,144.7C960,149,1056,103,1152,107.3C1248,112,1344,168,1440,158.7C1536,149,1632,75,1728,46.7C1824,19,1920,37,2016,46.7C2112,56,2208,56,2304,79.3C2400,103,2496,149,2592,163.3C2688,177,2784,159,2880,163.3C2976,168,3072,196,3168,172.7C3264,149,3360,75,3456,74.7C3552,75,3648,149,3744,172.7C3840,196,3936,168,4032,172.7C4128,177,4224,215,4320,191.3C4416,168,4512,84,4608,84C4704,84,4800,168,4896,186.7C4992,205,5088,159,5184,116.7C5280,75,5376,37,5472,51.3C5568,65,5664,131,5760,163.3C5856,196,5952,196,6048,163.3C6144,131,6240,65,6336,60.7C6432,56,6528,112,6624,112C6720,112,6816,56,6864,28L6912,0L6912,280L6864,280C6816,280,6720,280,6624,280C6528,280,6432,280,6336,280C6240,280,6144,280,6048,280C5952,280,5856,280,5760,280C5664,280,5568,280,5472,280C5376,280,5280,280,5184,280C5088,280,4992,280,4896,280C4800,280,4704,280,4608,280C4512,280,4416,280,4320,280C4224,280,4128,280,4032,280C3936,280,3840,280,3744,280C3648,280,3552,280,3456,280C3360,280,3264,280,3168,280C3072,280,2976,280,2880,280C2784,280,2688,280,2592,280C2496,280,2400,280,2304,280C2208,280,2112,280,2016,280C1920,280,1824,280,1728,280C1632,280,1536,280,1440,280C1344,280,1248,280,1152,280C1056,280,960,280,864,280C768,280,672,280,576,280C480,280,384,280,288,280C192,280,96,280,48,280L0,280Z"/></svg>
